<svg xmlns="http://www.w3.org/2000/svg" viewBox="0 0 64 64" role="img" aria-label="Chords Lab icon">
  <rect width="64" height="64" rx="16" fill="#f8f9fa"/>
  <path d="M18 46c0 3.3 2.9 6 6.4 6 3.6 0 6.5-2.7 6.5-6s-2.9-6-6.5-6c-3.5 0-6.4 2.7-6.4 6Z" fill="#3951c1"/>
  <path d="M29.5 46V14h4.8v24.6c1.6-1.2 3.6-1.9 5.9-1.9 3.5 0 6.4 2.7 6.4 6s-2.9 6-6.4 6c-3.6 0-6.5-2.7-6.5-6V23.4l17.6-4.2v-5L29.5 19V46Z" fill="#0d6a3e"/>
  <path d="M14 18h36" stroke="#8e4d20" stroke-width="3" stroke-linecap="round"/>
  <path d="M14 26h36" stroke="#8e4d20" stroke-width="3" stroke-linecap="round" opacity=".5"/>
</svg>
